<svg width="80" height="80" fill="none" xmlns="http://www.w3.org/2000/svg"><path d="M50 70a2 2 0 1 0 0-4v4Zm-20-4a2 2 0 1 0 0 4v-4Zm12-11a2 2 0 1 0-4 0h4Zm-4 13a2 2 0 1 0 4 0h-4Zm20-37a2 2 0 1 0-4 0h4Zm-32 0a2 2 0 1 0-4 0h4Zm24 35H30v4h20v-4ZM38 55v13h4V55h-4Zm16-24v8h4v-8h-4Zm-28 8v-8h-4v8h4Zm-4 0c0 9.941 8.059 18 18 18v-4c-7.732 0-14-6.268-14-14h-4Zm32 0c0 7.732-6.268 14-14 14v4c9.941 0 18-8.059 18-18h-4Z" fill="#2F80ED" style="fill:#f28482;fill-opacity:1"/><path d="M31 21a9 9 0 1 1 18 0v18a9 9 0 1 1-18 0V21Z" fill="#9B51E0" style="fill:#84a59d;fill-opacity:1"/><path fill-rule="evenodd" clip-rule="evenodd" d="M49 35v4h-9a2 2 0 1 1 0-4h9Zm0-7v4h-9a2 2 0 1 1 0-4h9Zm0-7h-9a2 2 0 1 0 0 4h9v-4Z" fill="#F2F2F2"/></svg>